<svg id="Capa_1" xmlns="http://www.w3.org/2000/svg" viewBox="0 0 511.6 511.6"><style>.st0{fill:#777}</style><path class="st0" d="M301.9 327.6c30.9-13 55.3-30.8 73.2-53.2 17.9-22.5 26.9-47 26.9-73.4 0-26.5-8.9-50.9-26.8-73.4-17.9-22.5-42.3-40.2-73.2-53.2-31-13.1-64.6-19.6-101-19.6-36.4 0-70 6.5-100.9 19.6-30.9 13-55.3 30.8-73.2 53.2C8.9 150.1 0 174.5 0 201c0 22.6 6.8 44 20.3 64s32.1 36.8 55.7 50.5c-1.9 4.6-3.9 8.8-5.9 12.6-2 3.8-4.4 7.5-7.1 11-2.8 3.5-4.9 6.3-6.4 8.3-1.5 2-4 4.8-7.4 8.4-3.4 3.6-5.6 6-6.6 7.1 0-.2-.4.2-1.1 1.3-.8 1-1.2 1.5-1.3 1.4-.1-.1-.5.4-1.1 1.4-.7 1-1 1.6-1 1.6l-.7 1.4c-.3.6-.5 1.1-.6 1.7-.1.6-.1 1.2-.1 1.9s.1 1.3.3 1.9c.4 2.5 1.5 4.5 3.3 6 1.8 1.5 3.8 2.3 5.9 2.3h.9c9.5-1.3 17.7-2.9 24.6-4.6 29.3-7.6 55.8-19.8 79.4-36.5 17.1 3 33.9 4.6 50.2 4.6 36-.1 69.7-6.7 100.6-19.7zm-159.7-23.8l-12.6 8.8c-5.3 3.6-11.2 7.3-17.7 11.1l10-24-27.7-16C75.9 273 61.7 260.5 51.7 246c-10.1-14.5-15.1-29.5-15.1-45.1 0-19.4 7.5-37.6 22.4-54.5 14.9-16.9 35.1-30.4 60.4-40.3 25.3-9.9 52.5-14.8 81.7-14.8s56.3 5 81.7 14.8c25.3 9.9 45.4 23.3 60.4 40.3 14.9 16.9 22.4 35.1 22.4 54.5s-7.5 37.6-22.4 54.5c-14.9 16.9-35.1 30.4-60.4 40.3-25.3 9.9-52.5 14.8-81.7 14.8-14.3 0-28.8-1.3-43.7-4l-15.2-2.7z"/><path class="st0" d="M491.3 338.2c13.5-19.9 20.3-41.3 20.3-64.1 0-23.4-7.1-45.3-21.4-65.7-14.3-20.4-33.7-37.3-58.2-50.8 4.4 14.3 6.6 28.7 6.6 43.4 0 25.5-6.4 49.7-19.1 72.5-12.8 22.8-31 43-54.8 60.5-22.1 16-47.2 28.3-75.4 36.8-28.2 8.6-57.6 12.8-88.2 12.8-5.7 0-14.1-.4-25.1-1.1 38.3 25.1 83.2 37.7 134.8 37.7 16.4 0 33.1-1.5 50.3-4.6 23.6 16.8 50.1 28.9 79.4 36.5 6.9 1.7 15 3.2 24.6 4.6 2.3.2 4.4-.5 6.3-2 1.9-1.5 3.1-3.6 3.7-6.3-.1-1.1 0-1.8.3-1.9.3-.1.2-.7-.1-1.9-.4-1.1-.6-1.7-.6-1.7l-.7-1.4c-.2-.4-.5-.9-1-1.6-.5-.7-.9-1.1-1.1-1.4-.3-.3-.7-.8-1.3-1.4-.6-.7-1-1.1-1.1-1.3-1-1.1-3.1-3.5-6.6-7.1-3.4-3.6-5.9-6.4-7.4-8.4s-3.7-4.8-6.4-8.3c-2.8-3.5-5.1-7.2-7.1-11s-3.9-8-5.9-12.6c23.2-13.5 41.7-30.3 55.2-50.2z"/></svg>