<svg xmlns="http://www.w3.org/2000/svg" viewBox="0 0 1000 1000" id="Layer_1"><style id="style2">.st0{fill:#fff}</style><path id="rect4" transform="rotate(-180 366.663 746.7)" d="M.1 741h733.1v11.4H.1z"/><path id="rect6" d="M229.5 377.2H283V741h-53.5z"/><path id="rect8" d="M719.6 377.2h53.5V741h-53.5z"/><path id="rect10" transform="rotate(55.301 281.25 365.444)" d="M254.5 78H308v575h-53.5z"/><path id="rect12" transform="rotate(124.701 717.127 361.258)" d="M690.4 81.7h53.5v559.1h-53.5z"/><path id="rect14" transform="rotate(-180 637.027 746.7)" d="M270.5 741h733.1v11.4H270.5z"/><path id="rect16" class="st0" d="M-24.8 494.2h198.9v63.1H-24.8z"/><path id="rect18" class="st0" d="M843 494.2h155.1v58.5H843z"/><path id="rect20" class="st0" transform="rotate(124.701 894.315 417.59)" d="M867.5 170.4H921v494.3h-53.5z"/><path id="rect22" class="st0" transform="rotate(55.301 174.121 374.262)" d="M147.4 130.6h53.5V618h-53.5z"/></svg>