<svg xmlns="http://www.w3.org/2000/svg" viewBox="0 0 483.413 483.413"><path d="M221.309 465.929V244.183a36.073 36.073 0 0 1-16.026-30.013c0-19.814 16.026-35.841 35.841-35.841s35.841 16.026 35.841 35.841c0 14.569-8.742 27.099-20.98 32.635v219.124c0 9.616-7.867 17.483-17.483 17.483s-17.193-7.867-17.193-17.483zm106.939-180.952c2.914 1.748 5.828 2.622 9.033 2.622 5.828 0 11.656-2.914 14.861-8.45 13.112-21.563 19.523-46.331 18.357-71.681-2.914-70.516-62.648-125.588-133.456-122.966-33.801 1.457-65.271 16.026-88.582 41.377-23.311 25.059-35.258 57.986-33.801 92.079.874 20.106 6.119 39.337 15.735 56.821 4.662 8.45 15.444 11.656 23.894 6.702 8.45-4.662 11.364-15.444 6.702-23.894-6.993-12.821-10.781-26.516-11.656-41.377-.874-24.768 7.867-48.662 24.477-67.019s40.212-28.556 64.979-29.722c51.284-2.04 94.992 37.88 97.032 89.456.874 18.357-3.788 36.423-13.404 52.158-4.952 8.159-2.329 18.941 5.829 23.894zm51.285 67.311c7.285 6.119 18.357 5.245 24.768-2.04a213.62 213.62 0 0 0 50.119-137.535C454.419 95.284 359.136 0 241.706 0S28.993 95.284 28.993 212.713c0 53.324 19.814 104.025 55.655 143.363 3.497 3.788 8.159 5.828 12.821 5.828 4.079 0 8.45-1.457 11.656-4.662 6.993-6.411 7.576-17.483 1.166-24.768-29.722-32.635-46.331-75.178-46.331-119.76 0-97.906 79.84-177.747 177.747-177.747s177.747 79.84 177.747 177.747c0 41.96-14.861 82.754-41.96 114.807-6.412 7.284-5.537 18.356 2.039 24.767z"/></svg>