<svg id="Слой_1" xmlns="http://www.w3.org/2000/svg" viewBox="0 0 1920 1080"><style>.st0{fill:#f56b60}</style><path class="st0" d="M1498.9 694.8c0 36.2-20.2 67.5-49.4 84.2-5.6 1.4-11.1 4.2-16 7-13.9 9-23 25-23 43.1 0 2.8 0 5.6.7 8.3 0 2.1.7 4.2 1.4 6.3 1.4 5.6 1.4 11.8 1.4 18.1 0 24.3-9 45.9-23.7 63.3-11.8 13.9-18.8 30.6-17.4 48.7v2.8c1.4 54.3-43.8 99.5-98.8 99.5-20.9 0-39.7-6.3-55.7-16.7-23-15.3-50.1-22.3-77.2-17.4-5.6.7-11.1 1.4-16.7 1.4-14.6 0-27.8-2.8-40.4-8.3-23.7-10.4-50.1-12.5-74.4-4.2-9.7 3.5-20.9 5.6-32 5.6-9.7 0-18.8-1.4-27.8-4.2-25-7-51.5-4.2-74.4 6.3-12.5 5.6-27.1 9-41.7 9-7.7 0-14.6-.7-21.6-2.1-25-5.6-50.8-.7-72.4 12.5-15.3 9-34.1 14.6-53.6 13.9-51.5-1.4-93.9-41.7-96-92.5v-6.3c0-15.3-5.6-29.9-15.3-42.4-13.9-17.4-21.6-39-21.6-62.6 0-4.9.7-9 1.4-13.9 0-.7 0-1.4.7-2.1 2.8-4.9 4.2-10.4 4.9-16.7v-5.6c0-18.8-10.4-35.5-25.7-45.2-2.8-2.1-6.3-3.5-9-4.2-1.4-.7-3.5-2.1-4.9-2.8-27.8-17.4-46.6-48-46.6-82.8 0-55 47.3-100.2 103.7-97.4 50.1 2.1 91.1 42.4 93.9 91.8.7 15.3-2.1 29.2-7.7 42.4l-.7.7c-2.1 2.8-4.2 5.6-5.6 9-2.8 6.3-4.9 13.2-5.6 20.2V772c2.8 26.4 25.7 46.6 52.9 46.6 29.2 0 53.6-23.7 53.6-52.9 0-6.3-1.4-12.5-3.5-18.1 0-.7 0-.7-.7-1.4-4.9-12.5-13.9-23-25.7-28.5h-.7c-30.6-16.7-52.2-48.7-52.2-85.6 0-56.4 48.7-101.6 107.1-97.4 48 3.5 87 41.7 90.4 89.1 2.1 27.1-7 52.2-23.7 71-2.1 1.4-3.5 3.5-5.6 5.6-5.6 7-9.7 14.6-11.1 23.7-.7 2.8-.7 6.3-.7 9 0 29.2 23.7 52.9 53.6 52.9 29.2 0 53.6-23.7 53.6-52.9 0-4.9-.7-9.7-2.1-14.6-2.8-9-7.7-16.7-14.6-23.7-3.5-3.5-7-6.3-11.1-8.3-21.6-18.1-34.8-44.5-34.8-73.7 0-55 47.3-100.2 103.7-97.4 50.1 2.1 90.4 41.7 93.9 90.4 2.1 31.3-11.1 59.8-32.7 79.3-2.8 1.4-4.9 3.5-7.7 5.6-7.7 7.7-13.2 16.7-15.3 27.8-.7 3.5-.7 7-.7 10.4 0 29.2 23.7 52.9 53.6 52.9 29.2 0 53.6-23.7 53.6-52.9V724c-.7-10.4-4.9-20.2-11.1-27.8l-4.2-4.2c-13.9-16.7-23-38.3-23-61.9 0-55 47.3-100.2 103.7-97.4 50.8 2.1 91.8 43.1 93.9 92.5 1.4 34.1-14.6 64-39.7 82.8-7.7 2.1-15.3 6.3-20.9 11.8-7.7 7-13.2 16-15.3 25.7-.7 4.2-1.4 8.3-1.4 12.5 0 29.2 23.7 52.9 53.6 52.9 27.8 0 50.8-21.6 53.6-48v-4.2c0-6.3-1.4-11.8-2.8-17.4-1.4-3.5-2.8-7.7-4.9-10.4-5.6-12.5-8.3-27.1-7-41.7 2.8-50.8 45.9-91.1 97.4-91.8 56.6-.7 101.8 43.1 101.8 97.4z"/><path class="st0" d="M1411.9 837.4c.7 2.1.7 4.2 1.4 6.3-.7-2.2-1.4-4.2-1.4-6.3zm37.6-58.5c-4.9 2.8-10.4 5.6-16 7 4.9-2.8 10.5-4.9 16-7zM662.7 733l.7-.7c-.7 1.4-1.4 2.8-2.1 4.9-2.1 2.8-3.5 6.3-4.9 9-2.8 6.3-4.2 13.2-4.2 20.2v-4.2c.7-7 2.1-13.9 5.6-20.2.7-3.4 2.8-6.2 4.9-9zm93.2 15.3s-.7-.7-.7-1.4c.7 0 .7.7.7 1.4zm96-52.9c-1.4 2.1-3.5 3.5-5.6 5.6l5.6-5.6zm73.7.7c-4.2-2.8-7.7-4.9-11.1-8.3 3.5 2.8 7.7 4.9 11.1 8.3zm119-9.7c-2.1 2.1-4.9 4.2-7.7 5.6 2.1-1.4 4.9-3.5 7.7-5.6zm71.7 11.1l-4.2-4.2c2.1 1.5 2.8 2.8 4.2 4.2zm131.5 11.9c-6.3 4.9-13.2 8.3-20.9 11.8 6.3-5.6 13.2-9.8 20.9-11.8zm66.1 32.7c-2.1-3.5-3.5-7-4.9-10.4 1.4 3.4 3.5 6.9 4.9 10.4zm-789.7 38.2c3.5 1.4 6.3 2.8 9 4.2-2.7-1.4-5.5-2.8-9-4.2zm34.8 55c-.7 6.3-2.1 11.8-4.9 16.7 1.4-6.3 2.8-11.8 4.9-16.7z"/><path class="st0" d="M661.3 736.5c-1.4 3.5-3.5 6.3-4.9 9 1.4-3.4 2.8-6.2 4.9-9zm1060.2-457.8c-44.5 0-80 35.5-80 78.6s36.2 78.6 80 78.6c44.5 0 80-35.5 80-78.6.7-43.1-35.4-78.6-80-78.6zm-336-203.8c-44.5 0-80 35.5-80 78.6 0 43.1 36.2 78.6 80 78.6 44.5 0 80-35.5 80-78.6s-36.2-78.6-80-78.6zM978.5 6c-44.5 0-80 35.5-80 78.6s36.2 78.6 80 78.6c44.5 0 80-35.5 80-78.6 0-43.1-35.5-78.6-80-78.6zM582 65.1c-44.5 0-80 35.5-80 78.6 0 43.1 36.2 78.6 80 78.6 44.5 0 80-35.5 80-78.6 0-43.1-36.2-78.6-80-78.6zM234.1 262.7c-44.5 0-80 35.5-80 78.6 0 43.1 36.2 78.6 80 78.6 44.5 0 80-35.5 80-78.6 0-43.8-36.2-78.6-80-78.6zm1305.2 160c-49.4 0-89.7 39.7-89.7 88.4s40.4 88.4 89.7 88.4c49.4 0 89.7-39.7 89.7-88.4 0-49.4-40.3-88.4-89.7-88.4zm-263.7-127.3c-49.4 0-89.7 39.7-89.7 88.4s40.4 88.4 89.7 88.4 89.7-39.7 89.7-88.4c0-49.4-40.3-88.4-89.7-88.4zM977.8 253c-49.4 0-89.7 39.7-89.7 88.4s40.4 88.4 89.7 88.4c49.4 0 89.7-39.7 89.7-88.4.1-48.8-40.3-88.4-89.7-88.4zm-272 42.4c-49.4 0-89.7 39.7-89.7 88.4s40.4 88.4 89.7 88.4c49.4 0 89.7-39.7 89.7-88.4 0-49.4-40.3-88.4-89.7-88.4zM442.1 406c-49.4 0-89.7 39.7-89.7 88.4s40.4 88.4 89.7 88.4 89.7-39.7 89.7-88.4c.1-48.7-40.3-88.4-89.7-88.4z"/></svg>