<svg id="Layer_1" data-name="Layer 1" xmlns="http://www.w3.org/2000/svg" width="2661.62" height="362.19" viewBox="0 0 2661.62 362.19"><defs><style>.cls-1{isolation:isolate}.cls-2{fill:#009eff}</style></defs><title>streamium2</title><g id="Page-1"><g id="Group-6"><g id="streamium" class="cls-1"><g class="cls-1"><path class="cls-2" d="M77.61 117.29h181.1V169H77.61a25.79 25.79 0 0 0-18.24 44.11 24.88 24.88 0 0 0 18.24 7.63H181.1q32.08 0 54.85 22.77t22.77 54.85q0 32.08-22.77 54.85T181.1 376H0v-51.74h181.1a25.87 25.87 0 0 0 0-51.74H77.61q-32.08 0-54.85-22.77T0 194.9q0-32.08 22.77-54.85t54.84-22.76zM306.83 13.81h51.74v103.48h77.61V169h-77.61v77.61q0 32.08 22.77 54.85t54.85 22.77V376q-53.55 0-91.45-37.9t-37.9-91.45V13.81zm229.22 232.84V376h-51.74V246.65q0-53.55 37.9-91.45t91.45-37.9V169q-32.08 0-54.85 22.77t-22.76 54.88zm312.78 51.74h61.31A129.71 129.71 0 0 1 882.72 338q-38 38-91.58 38t-91.45-37.9q-37.9-37.9-37.9-91.45t37.9-91.45q37.9-37.9 91.45-37.9t91.45 37.9q37.9 37.9 37.9 91.45a140.17 140.17 0 0 1-2.33 25.87H717.67a77.18 77.18 0 0 0 18.63 29q22.76 22.77 54.85 22.77t54.85-22.8q1.54-1.55 2.83-3.1zm15.78-77.61a77.34 77.34 0 0 0-18.63-29Q823.22 169 791.14 169t-54.84 22.8a77.25 77.25 0 0 0-18.63 29h146.95zm310.98 129.61Q1142.21 376 1098 376q-53.55 0-91.45-37.9t-37.9-91.45q0-53.55 37.9-91.45t91.45-37.9q53.55 0 91.45 37.9t37.9 91.45V376h-51.74v-25.61zM1098 169q-32.08 0-54.85 22.77t-22.77 54.85q0 32.08 22.77 54.85t54.85 22.79q32.08 0 54.85-22.77t22.77-54.85q0-32.08-22.77-54.85T1098 169zm384.42 77.65q0-32.08-22.77-54.85t-54.84-22.8q-32.08 0-54.85 22.77t-22.77 54.85V376h-51.74V246.65q0-53.55 37.9-91.45t91.45-37.9q53.55 0 91.58 37.77a174.34 174.34 0 0 1 11.9 13.71 147.23 147.23 0 0 1 12.16-13.71q37.77-37.77 91.32-37.77t91.45 37.9q37.9 37.9 37.9 91.45V376h-51.74V246.65q0-32.08-22.77-54.85t-54.83-22.8q-32.08 0-54.85 22.77t-22.77 54.85V376h-51.74V246.65zm306.83-181.1V13.81H1841v51.74h-51.74zm51.75 51.74V376h-51.74V117.29H1841zm122.62 184.2q22.76 22.77 54.85 22.77t54.85-22.77q22.76-22.76 22.77-54.85V117.29h51.74v129.36q0 53.55-37.9 91.45t-91.46 37.9q-53.55 0-91.45-37.9t-37.9-91.45V117.29h51.74v129.36q0 32.08 22.76 54.84zm439.3-54.84q0-32.08-22.77-54.85T2325.3 169q-32.08 0-54.85 22.77t-22.77 54.85V376h-51.74V246.65q0-53.55 37.9-91.45t91.45-37.9q53.55 0 91.58 37.77a174.34 174.34 0 0 1 11.9 13.71 147.23 147.23 0 0 1 12.16-13.71q37.77-37.77 91.32-37.77t91.45 37.9q37.9 37.9 37.9 91.45V376h-51.74V246.65q0-32.08-22.77-54.85t-54.82-22.8q-32.08 0-54.85 22.77t-22.77 54.85V376h-51.74V246.65z" transform="translate(0 -13.81)"/></g></g></g></g></svg>