<svg xmlns="http://www.w3.org/2000/svg" viewBox="0 0 512 512"><path d="M256 192c-35.292 0-64 28.708-64 64s28.708 64 64 64 64-28.708 64-64-28.708-64-64-64zm0 106.667c-23.521 0-42.667-19.135-42.667-42.667s19.146-42.667 42.667-42.667 42.667 19.135 42.667 42.667-19.146 42.667-42.667 42.667zM256 384c-35.292 0-64 28.708-64 64s28.708 64 64 64 64-28.708 64-64-28.708-64-64-64zm0 106.667c-23.521 0-42.667-19.135-42.667-42.667s19.146-42.667 42.667-42.667 42.667 19.135 42.667 42.667-19.146 42.667-42.667 42.667zM256 128c35.292 0 64-28.708 64-64S291.292 0 256 0s-64 28.708-64 64 28.708 64 64 64zm0-106.667c23.521 0 42.667 19.135 42.667 42.667S279.521 106.667 256 106.667 213.333 87.531 213.333 64 232.479 21.333 256 21.333z"/></svg>